grf
version=1
nRows=14
nColumns=37
inDegrees=no
endheader
time	ground_force_1_vx	ground_force_1_vy	ground_force_1_vz	ground_force_1_px	ground_force_1_py	ground_force_1_pz	ground_moment_1_mx	ground_moment_1_my	ground_moment_1_mz	ground_force_2_vx	ground_force_2_vy	ground_force_2_vz	ground_force_2_px	ground_force_2_py	ground_force_2_pz	ground_moment_2_mx	ground_moment_2_my	ground_moment_2_mz	ground_force_3_vx	ground_force_3_vy	ground_force_3_vz	ground_force_3_px	ground_force_3_py	ground_force_3_pz	ground_moment_3_mx	ground_moment_3_my	ground_moment_3_mz	ground_force_4_vx	ground_force_4_vy	ground_force_4_vz	ground_force_4_px	ground_force_4_py	ground_force_4_pz	ground_moment_4_mx	ground_moment_4_my	ground_moment_4_mz
      0.00000000	      0.00000000	     -0.00000000	      0.00000000	      0.00000000	      0.00000000	      0.00000000	      0.00000000	      0.00000000	      0.00000000	     -2.25926900	     21.95505905	   -293.26287842	   -285.18818378	  -1049.89746773	      0.00000000	      0.00000000	      0.00000000	   2795.34072414	     12.65605258	    -21.96264378	   -474.72955322	   -346.18408081	   -798.28392047	      0.00000000	      0.00000000	     -0.00000000	  -2432.62720017	      0.00000000	     -0.00000000	      0.00000000	      0.00000000	      0.00000000	      0.00000000	      0.00000000	      0.00000000	      0.00000000
      0.01000000	      0.00000000	     -0.00000000	      0.00000000	      0.00000000	      0.00000000	      0.00000000	      0.00000000	      0.00000000	      0.00000000	     -2.22880363	     22.37027359	   -296.91046143	   -284.49149886	  -1052.22647768	      0.00000000	      0.00000000	      0.00000000	   2720.06834740	     12.30191516	    -21.90377915	   -471.70220947	   -345.66035949	   -797.56855957	      0.00000000	      0.00000000	     -0.00000000	  -2464.41997416	      0.00000000	     -0.00000000	      0.00000000	      0.00000000	      0.00000000	      0.00000000	      0.00000000	      0.00000000	      0.00000000
      0.02000000	      0.00000000	     -0.00000000	      0.00000000	      0.00000000	      0.00000000	      0.00000000	      0.00000000	      0.00000000	      0.00000000	     -2.29093504	     22.43055153	   -297.04568481	   -283.79286744	  -1051.59769049	      0.00000000	      0.00000000	      0.00000000	   2878.38220544	     12.00502491	    -21.84439955	   -466.58691406	   -344.37068258	   -799.00765438	      0.00000000	      0.00000000	     -0.00000000	  -2426.76471520	      0.00000000	     -0.00000000	      0.00000000	      0.00000000	      0.00000000	      0.00000000	      0.00000000	      0.00000000	      0.00000000
      0.03000000	      0.00000000	     -0.00000000	      0.00000000	      0.00000000	      0.00000000	      0.00000000	      0.00000000	      0.00000000	      0.00000000	     -2.99625826	     22.61298943	   -300.54763794	   -283.38514745	  -1053.16693749	      0.00000000	      0.00000000	      0.00000000	   2854.14104646	     11.61891364	    -21.93358332	   -465.18777466	   -343.17694971	   -797.93781981	      0.00000000	      0.00000000	     -0.00000000	  -2524.50989989	      0.00000000	     -0.00000000	      0.00000000	      0.00000000	      0.00000000	      0.00000000	      0.00000000	      0.00000000	      0.00000000
      0.04000000	      0.00000000	     -0.00000000	      0.00000000	      0.00000000	      0.00000000	      0.00000000	      0.00000000	      0.00000000	      0.00000000	     -3.35686469	     23.07458878	   -301.86795044	   -281.17883390	  -1051.12330249	      0.00000000	      0.00000000	      0.00000000	   2789.45641259	     10.79563710	    -22.19719218	   -463.66748047	   -342.53582104	   -797.39762747	      0.00000000	      0.00000000	     -0.00000000	  -2487.82135475	      0.00000000	     -0.00000000	      0.00000000	      0.00000000	      0.00000000	      0.00000000	      0.00000000	      0.00000000	      0.00000000
      0.05000000	      0.00000000	     -0.00000000	      0.00000000	      0.00000000	      0.00000000	      0.00000000	      0.00000000	      0.00000000	      0.00000000	     -4.01447296	     23.05700302	   -304.45263672	   -281.39109795	  -1053.22256579	      0.00000000	      0.00000000	      0.00000000	   2790.62098799	     10.46972842	    -22.37544533	   -462.03179932	   -341.00614494	   -797.16904595	      0.00000000	      0.00000000	     -0.00000000	  -2424.19677213	      0.00000000	     -0.00000000	      0.00000000	      0.00000000	      0.00000000	      0.00000000	      0.00000000	      0.00000000	      0.00000000
      0.06000000	      0.00000000	     -0.00000000	      0.00000000	      0.00000000	      0.00000000	      0.00000000	      0.00000000	      0.00000000	      0.00000000	     -4.48809576	     23.64385414	   -305.63552856	   -279.70450796	  -1051.31057971	      0.00000000	      0.00000000	      0.00000000	   2698.65963530	     10.02431674	    -22.31740276	   -459.73071289	   -340.08716533	   -797.93645939	      0.00000000	      0.00000000	     -0.00000000	  -2413.78028849	      0.00000000	     -0.00000000	      0.00000000	      0.00000000	      0.00000000	      0.00000000	      0.00000000	      0.00000000	      0.00000000
      0.07000000	      0.00000000	     -0.00000000	      0.00000000	      0.00000000	      0.00000000	      0.00000000	      0.00000000	      0.00000000	      0.00000000	     -4.93391514	     23.73959541	   -310.44519043	   -279.77793672	  -1054.41141419	      0.00000000	     -0.00000000	      0.00000000	   2758.15207977	      9.78606032	    -21.96687784	   -458.09692383	   -338.94292260	   -797.26691321	      0.00000000	      0.00000000	     -0.00000000	  -2531.93473005	      0.00000000	     -0.00000000	      0.00000000	      0.00000000	      0.00000000	      0.00000000	      0.00000000	      0.00000000	      0.00000000
      0.08000000	      0.00000000	     -0.00000000	      0.00000000	      0.00000000	      0.00000000	      0.00000000	      0.00000000	      0.00000000	      0.00000000	     -5.41077089	     24.47582245	   -311.62771606	   -277.91353737	  -1053.18778922	      0.00000000	      0.00000000	      0.00000000	   2676.40141489	      9.66947363	    -21.99502648	   -456.46142578	   -337.35239599	   -797.48616378	      0.00000000	      0.00000000	     -0.00000000	  -2498.66764445	      0.00000000	     -0.00000000	      0.00000000	      0.00000000	      0.00000000	      0.00000000	      0.00000000	      0.00000000	      0.00000000
      0.09000000	      0.00000000	     -0.00000000	      0.00000000	      0.00000000	      0.00000000	      0.00000000	      0.00000000	      0.00000000	      0.00000000	     -5.59779692	     24.89854431	   -313.39410400	   -276.61300081	  -1052.68053162	      0.00000000	      0.00000000	      0.00000000	   2759.50863979	      9.40334126	    -22.22981535	   -454.25924683	   -336.68410496	   -797.75237713	      0.00000000	      0.00000000	     -0.00000000	  -2446.00660982	      0.00000000	     -0.00000000	      0.00000000	      0.00000000	      0.00000000	      0.00000000	      0.00000000	      0.00000000	      0.00000000
      0.10000000	      0.00000000	     -0.00000000	      0.00000000	      0.00000000	      0.00000000	      0.00000000	      0.00000000	      0.00000000	      0.00000000	     -6.18214369	     25.36622429	   -315.60046387	   -275.40550453	  -1051.76144069	      0.00000000	      0.00000000	      0.00000000	   2820.58878384	      9.22591969	    -22.25706563	   -451.11813354	   -335.11360694	   -798.11162684	      0.00000000	      0.00000000	     -0.00000000	  -2707.63120892	      0.00000000	     -0.00000000	      0.00000000	      0.00000000	      0.00000000	      0.00000000	      0.00000000	      0.00000000	      0.00000000
      0.11000000	      0.00000000	     -0.00000000	      0.00000000	      0.00000000	      0.00000000	      0.00000000	      0.00000000	      0.00000000	      0.00000000	     -7.18957853	     25.49129486	   -318.42395020	   -273.84390053	  -1052.19788432	      0.00000000	     -0.00000000	      0.00000000	   2443.42679739	      8.66275592	    -22.29179649	   -451.55895996	   -333.63018575	   -795.83737954	      0.00000000	      0.00000000	     -0.00000000	  -2732.50778538	      0.00000000	     -0.00000000	      0.00000000	      0.00000000	      0.00000000	      0.00000000	      0.00000000	      0.00000000	      0.00000000
      0.12000000	      0.00000000	     -0.00000000	      0.00000000	      0.00000000	      0.00000000	      0.00000000	      0.00000000	      0.00000000	      0.00000000	     -7.31526184	     25.37063789	   -321.54028320	   -272.37895293	  -1053.86817375	      0.00000000	      0.00000000	      0.00000000	   2643.74477503	      8.46293830	    -21.96120527	   -449.00897217	   -332.72556471	   -795.94812319	      0.00000000	     -0.00000000	     -0.00000000	  -2677.45310834	      0.00000000	     -0.00000000	      0.00000000	      0.00000000	      0.00000000	      0.00000000	      0.00000000	      0.00000000	      0.00000000
      0.13000000	      0.00000000	     -0.00000000	      0.00000000	      0.00000000	      0.00000000	      0.00000000	      0.00000000	      0.00000000	      0.00000000	     -7.14265680	     26.16687965	   -323.18267822	   -271.23215698	  -1053.07319965	      0.00000000	      0.00000000	      0.00000000	   2641.64925844	      8.03678225	    -21.96108507	   -448.08413696	   -330.99627767	   -796.41031612	      0.00000000	      0.00000000	     -0.00000000	  -2761.49172545	      0.00000000	     -0.00000000	      0.00000000	      0.00000000	      0.00000000	      0.00000000	      0.00000000	      0.00000000	      0.00000000
